<svg id="Layer_1" data-name="Layer 1" xmlns="http://www.w3.org/2000/svg" viewBox="0 0 122.88 92.17"><defs><style>.cls-1{fill-rule:evenodd;}</style></defs><title>project-management</title><path class="cls-1" d="M89.82,44.93a2.06,2.06,0,0,0-1,.27.94.94,0,0,0-.31.35,1.4,1.4,0,0,0-.1.56,5,5,0,0,0,1,2.44h0l2.1,3.34a18,18,0,0,0,2.82,3.71,5.76,5.76,0,0,0,4,1.61,5.88,5.88,0,0,0,4.25-1.69,18.43,18.43,0,0,0,2.91-4l2.36-3.89a3.79,3.79,0,0,0,.5-2.07c-.06-.24-.32-.35-.76-.38h-.29l-.33,0h-.19a3.55,3.55,0,0,1-.64,0l.81-3.58c-6,1-10.5-3.51-16.85-.89L90.54,45a3.43,3.43,0,0,1-.72,0Zm-16,27.75c.56-7.22-.86-7.32,5.2-9.59a58.19,58.19,0,0,0,9.65-4.3l5.19,13.89Zm49,0c-.55-7.22.86-7.32-5.19-9.59a58.66,58.66,0,0,1-9.66-4.3l-5.19,13.89ZM99.82,65.11h.72a1.2,1.2,0,0,0,1.19-1.19V62a1.19,1.19,0,0,0-1.19-1.19h-4.3A1.19,1.19,0,0,0,95.05,62v1.93a1.2,1.2,0,0,0,1.19,1.19H97l-1.4,7.57h5.6l-1.35-7.57Zm-66.52.43.82.81a.56.56,0,0,1,0,.78l-.66.66a4.46,4.46,0,0,1,.41,1.09h.85a.55.55,0,0,1,.55.55v1.15a.55.55,0,0,1-.55.55h-.93a4.56,4.56,0,0,1-.48,1.05l.6.61a.56.56,0,0,1,0,.78l-.82.81a.55.55,0,0,1-.77,0l-.66-.66a4.46,4.46,0,0,1-1.09.41V75a.55.55,0,0,1-.55.55H28.87a.55.55,0,0,1-.55-.55v-.93a4.42,4.42,0,0,1-1.06-.48l-.6.6a.54.54,0,0,1-.78,0l-.81-.81a.54.54,0,0,1,0-.78l.65-.66a4.07,4.07,0,0,1-.4-1.09h-.85a.54.54,0,0,1-.55-.55V69.13a.55.55,0,0,1,.55-.55h.93a4,4,0,0,1,.48-1l-.6-.6a.54.54,0,0,1,0-.78l.81-.82a.56.56,0,0,1,.78,0l.66.66a4.46,4.46,0,0,1,1.09-.41v-.85a.55.55,0,0,1,.55-.55h1.15a.55.55,0,0,1,.55.55v.93a4,4,0,0,1,1.05.48l.6-.6a.54.54,0,0,1,.78,0Zm-3.71,2a2.27,2.27,0,1,1-2.27,2.27,2.27,2.27,0,0,1,2.27-2.27Zm13.84-15.7a2.17,2.17,0,0,1-1.93-2.32,2.12,2.12,0,0,1,1.93-2.32H68.12a2.18,2.18,0,0,1,1.94,2.32,2.13,2.13,0,0,1-1.94,2.32Zm0,20.29a2.18,2.18,0,0,1-1.93-2.32,2.13,2.13,0,0,1,1.93-2.33H60.28a2.18,2.18,0,0,1,1.93,2.33,2.12,2.12,0,0,1-1.93,2.32ZM29.53,34.63a1.33,1.33,0,0,1-1.78-.23l-.15-.16-2.48-2.55a1.41,1.41,0,0,1,.23-2,1.65,1.65,0,0,1,2.17-.07L28.83,31l4.34-3.48A1.35,1.35,0,0,1,35.1,28,1.55,1.55,0,0,1,35,30.14l-5.42,4.49Zm13.78-2c-1.08,0-1.8-1.09-1.8-2.33S42.23,28,43.31,28H71.58a2.17,2.17,0,0,1,1.93,2.32,2.13,2.13,0,0,1-1.93,2.33ZM14.79,11.9H99.68a2.39,2.39,0,0,1,2.38,2.38v6.88H97.65V15.79H14.79v51h0a1.44,1.44,0,0,1-1.23,1.43C.61,70.23,0,85.56,13.17,87.76H97.65V81.32h4.41v8.46a2.38,2.38,0,0,1-.7,1.68h0a2.4,2.4,0,0,1-1.68.7H13.07c-3.54,0-8.47-2.78-10.52-5.71S-.17,79.93,0,75.66V20C0,10.52-.09.24,13.17,0h.16a1.46,1.46,0,0,1,1.46,1.46V11.9ZM3.45,69.23c2.89-3,4.06-3.42,7.94-4.13V3c-9.06.89-8,9.27-8,17.05,0,1,0,1.6,0,1.85V69.23Zm29.85-24,.82.82a.56.56,0,0,1,0,.78l-.66.65a4.62,4.62,0,0,1,.41,1.09h.85a.55.55,0,0,1,.55.55v1.15a.56.56,0,0,1-.55.56h-.93a4.77,4.77,0,0,1-.48,1l.6.6a.56.56,0,0,1,0,.78l-.82.82a.55.55,0,0,1-.77,0l-.66-.66a4.46,4.46,0,0,1-1.09.41v.85a.55.55,0,0,1-.55.55H28.87a.55.55,0,0,1-.55-.55v-.93a4.84,4.84,0,0,1-1.06-.48l-.6.6a.56.56,0,0,1-.78,0l-.81-.82a.54.54,0,0,1,0-.78l.65-.65a4.19,4.19,0,0,1-.4-1.09h-.85a.55.55,0,0,1-.55-.55V48.85a.54.54,0,0,1,.55-.55h.93a3.92,3.92,0,0,1,.48-1.06l-.6-.6a.54.54,0,0,1,0-.78l.81-.81a.54.54,0,0,1,.78,0l.66.65a4.07,4.07,0,0,1,1.09-.4v-.85a.55.55,0,0,1,.55-.56h1.15a.56.56,0,0,1,.55.56v.92a4.77,4.77,0,0,1,1.05.48l.6-.6a.56.56,0,0,1,.78,0Zm-3.71,2.06a2.27,2.27,0,1,1-2.27,2.26,2.27,2.27,0,0,1,2.27-2.26Zm78.8-3.14a1.52,1.52,0,0,1,1.1,1.15,4.66,4.66,0,0,1-.57,2.87h0a.21.21,0,0,1,0,.06l-2.39,3.94a19.67,19.67,0,0,1-3.1,4.21,7.06,7.06,0,0,1-5.07,2,6.84,6.84,0,0,1-4.82-1.93,18.53,18.53,0,0,1-3-3.94l-2.1-3.34a6,6,0,0,1-1.19-3.05,2.39,2.39,0,0,1,.2-1.09,2.08,2.08,0,0,1,.72-.84,2.71,2.71,0,0,1,.51-.26,54.19,54.19,0,0,1-.1-6,8.34,8.34,0,0,1,.26-1.36C92,26.11,108,27,108.52,38.73l-.13,5.44Z"/></svg>